<?xml version="1.0" encoding="UTF-8" standalone="no"?>
<svg xmlns="http://www.w3.org/2000/svg" height="310" width="310" version="1.1">
<g transform="translate(0,-742.36215)">
<g transform="translate(30.000002,-32.000015)">
<path fill="#800080" d="M155,119.41c-50.31,0-92,41.24-92,92.65,0,12.45,2.459,24.28,6.875,35.1-6.44-6.09-12.228-12.86-17.25-20.19,10.953,43.67,52.425,76.15,101.9,76.15,48.65,0,89.54-31.4,101.31-73.96-4.65,6.49-9.92,12.52-15.72,18,4.42-10.82,6.85-22.65,6.85-35.1,0-51.41-41.66-92.65-91.97-92.65zm0,25.84c37.78,0,67.5,30.14,67.5,66.81,0,36.68-29.72,66.85-67.5,66.85s-67.531-30.17-67.531-66.85c0-36.67,29.751-66.81,67.531-66.81z" transform="translate(-30.000002,774.36216)"/>
<path d="m125.01,777.4c-84.656,0-154.07,67.949-154.07,151.97,0,84.017,69.414,151.97,154.07,151.97s154.04-67.949,154.04-151.97c0-84.017-69.387-151.97-154.04-151.97zm0,29.467c69.508,0,125.08,54.934,125.08,122.5,0,67.564-55.571,122.5-125.08,122.5-69.508,0-125.08-54.934-125.08-122.5,0-67.564,55.571-122.5,125.08-122.5z" style="baseline-shift:baseline;block-progression:tb;color:#000000;direction:ltr;text-indent:0;text-align:start;enable-background:accumulate;text-transform:none;" fill="#400040"/>
</g>
</g>
</svg>
